<?xml version="1.0" encoding="utf-8"?>
<!-- Generator: Adobe Illustrator 17.0.0, SVG Export Plug-In . SVG Version: 6.00 Build 0)  -->
<!DOCTYPE svg PUBLIC "-//W3C//DTD SVG 1.1//EN" "http://www.w3.org/Graphics/SVG/1.1/DTD/svg11.dtd">
<svg version="1.1" id="Layer_1" xmlns="http://www.w3.org/2000/svg" xmlns:xlink="http://www.w3.org/1999/xlink" x="0px" y="0px"
	 width="20px" height="20.02px" viewBox="5 4.991 20 20.02" enable-background="new 5 4.991 20 20.02" xml:space="preserve">
<g>
	<path d="M24.989,10.881c-0.049-1.067-0.218-1.796-0.466-2.433c-0.256-0.659-0.599-1.218-1.156-1.775s-1.117-0.9-1.775-1.156
		c-0.637-0.248-1.367-0.417-2.433-0.466c-1.069-0.049-1.411-0.06-4.133-0.06s-3.064,0.011-4.133,0.06
		C9.825,5.099,9.096,5.268,8.459,5.516C7.799,5.772,7.24,6.114,6.683,6.672s-0.9,1.117-1.156,1.775
		C5.279,9.085,5.11,9.814,5.06,10.881C5.012,11.95,5,12.292,5,15.014s0.011,3.064,0.06,4.133c0.049,1.067,0.218,1.796,0.466,2.433
		c0.256,0.659,0.599,1.218,1.156,1.775c0.557,0.557,1.117,0.9,1.775,1.156c0.638,0.248,1.367,0.417,2.433,0.466
		c0.295,0.013,0.535,0.024,0.785,0.033h3.983v-7.764h-2.612v-3.026h2.613V11.99c0-2.59,1.581-4,3.892-4
		c1.107,0,2.057,0.083,2.335,0.119v2.707l-1.602,0.001c-1.257,0-1.499,0.597-1.499,1.473v1.932h2.997l-0.39,3.026h-2.606v7.748
		c0.117-0.005,0.24-0.011,0.374-0.017c1.067-0.049,1.796-0.218,2.433-0.466c0.659-0.256,1.218-0.599,1.775-1.156
		c0.557-0.557,0.9-1.117,1.156-1.775c0.248-0.637,0.417-1.367,0.466-2.433c0.004-0.082,0.007-0.159,0.011-0.234v-7.8
		C24.996,11.04,24.993,10.963,24.989,10.881z"/>
</g>
</svg>
