<?xml version="1.0" encoding="utf-8"?>
<!-- Generator: Adobe Illustrator 17.0.0, SVG Export Plug-In . SVG Version: 6.00 Build 0)  -->
<!DOCTYPE svg PUBLIC "-//W3C//DTD SVG 1.1//EN" "http://www.w3.org/Graphics/SVG/1.1/DTD/svg11.dtd">
<svg version="1.1" id="Layer_1" xmlns="http://www.w3.org/2000/svg" xmlns:xlink="http://www.w3.org/1999/xlink" x="0px" y="0px"
	 width="20px" height="20px" viewBox="5 5 20 20" enable-background="new 5 5 20 20" xml:space="preserve">
<g>
	<path d="M15,5c-2.716,0-3.057,0.011-4.123,0.06C9.813,5.109,9.086,5.278,8.449,5.525C7.792,5.78,7.234,6.122,6.678,6.678
		S5.78,7.791,5.525,8.449C5.278,9.086,5.109,9.813,5.06,10.877C5.011,11.943,5,12.284,5,15s0.011,3.057,0.06,4.123
		c0.049,1.065,0.217,1.791,0.465,2.427c0.255,0.657,0.597,1.215,1.153,1.771s1.113,0.898,1.771,1.153
		c0.636,0.247,1.363,0.416,2.427,0.465C11.943,24.989,12.284,25,15,25s3.057-0.011,4.123-0.06c1.065-0.049,1.791-0.217,2.427-0.465
		c0.657-0.255,1.215-0.597,1.771-1.153s0.898-1.113,1.153-1.771c0.247-0.636,0.416-1.363,0.465-2.427C24.989,18.057,25,17.716,25,15
		s-0.011-3.057-0.06-4.123c-0.049-1.065-0.217-1.791-0.465-2.427c-0.255-0.657-0.597-1.215-1.153-1.771s-1.113-0.898-1.771-1.153
		c-0.636-0.247-1.363-0.416-2.427-0.465C18.057,5.011,17.716,5,15,5L15,5L15,5z M15,6.802c2.67,0,2.987,0.01,4.041,0.058
		c0.975,0.045,1.505,0.207,1.857,0.344c0.467,0.181,0.8,0.398,1.15,0.748c0.35,0.35,0.567,0.683,0.748,1.15
		c0.137,0.353,0.3,0.882,0.344,1.857c0.048,1.055,0.058,1.371,0.058,4.041s-0.01,2.987-0.058,4.041
		c-0.045,0.975-0.207,1.505-0.344,1.857c-0.181,0.467-0.398,0.8-0.748,1.15c-0.35,0.35-0.683,0.567-1.15,0.748
		c-0.353,0.137-0.882,0.3-1.857,0.344c-1.054,0.048-1.371,0.058-4.041,0.058s-2.987-0.01-4.041-0.058
		c-0.975-0.045-1.505-0.207-1.857-0.344c-0.467-0.181-0.8-0.398-1.15-0.748c-0.35-0.35-0.567-0.683-0.748-1.15
		c-0.137-0.353-0.3-0.882-0.344-1.857C6.812,17.987,6.802,17.67,6.802,15s0.01-2.987,0.058-4.041
		c0.045-0.975,0.207-1.505,0.344-1.857c0.181-0.467,0.398-0.8,0.748-1.15c0.35-0.35,0.683-0.567,1.15-0.748
		c0.353-0.137,0.882-0.3,1.857-0.344C12.013,6.812,12.33,6.802,15,6.802"/>
	<path d="M15,18.333c-1.841,0-3.333-1.493-3.333-3.333s1.493-3.333,3.333-3.333s3.333,1.493,3.333,3.333S16.841,18.333,15,18.333
		L15,18.333z M15,9.865c-2.836,0-5.135,2.299-5.135,5.135s2.299,5.135,5.135,5.135s5.135-2.299,5.135-5.135
		C20.135,12.164,17.836,9.865,15,9.865L15,9.865z"/>
	<path d="M21.538,9.662c0,0.663-0.537,1.2-1.2,1.2s-1.2-0.537-1.2-1.2c0-0.663,0.537-1.2,1.2-1.2S21.538,8.999,21.538,9.662
		L21.538,9.662z"/>
</g>
</svg>
