<?xml version="1.0" encoding="utf-8"?>
<!-- Generator: Adobe Illustrator 17.0.0, SVG Export Plug-In . SVG Version: 6.00 Build 0)  -->
<!DOCTYPE svg PUBLIC "-//W3C//DTD SVG 1.1//EN" "http://www.w3.org/Graphics/SVG/1.1/DTD/svg11.dtd">
<svg version="1.1" id="Layer_1" xmlns="http://www.w3.org/2000/svg" xmlns:xlink="http://www.w3.org/1999/xlink" x="0px" y="0px"
	 width="20px" height="17.934px" viewBox="5.001 6.031 20 17.934" enable-background="new 5.001 6.031 20 17.934"
	 xml:space="preserve">
<g>
	<path d="M15.653,20.915c-0.665,0.606-1.292,1.188-1.931,1.756c-0.957,0.849-1.85,0.646-2.266-0.569
		c-0.481-1.407-0.902-2.834-1.317-4.262c-0.108-0.372-0.285-0.567-0.658-0.683c-1.107-0.345-2.212-0.702-3.297-1.108
		c-1.188-0.444-1.558-1.643-0.756-2.398c0.244-0.23,0.564-0.401,0.877-0.534c3.66-1.547,7.326-3.081,10.99-4.62
		c1.673-0.703,3.344-1.412,5.018-2.111c0.283-0.118,0.574-0.228,0.872-0.302c1.093-0.271,1.996,0.554,1.787,1.657
		c-0.572,3.013-1.167,6.022-1.752,9.032c-0.35,1.799-0.712,3.595-1.047,5.397c-0.326,1.759-1.812,2.334-3.226,1.238
		c-0.963-0.747-1.934-1.484-2.903-2.224C15.927,21.097,15.804,21.019,15.653,20.915z M23.432,7.579
		c-5.595,2.357-11.088,4.671-16.697,7.034c1.383,0.471,2.637,0.885,3.881,1.328c0.42,0.15,0.747,0.14,1.153-0.117
		c2.826-1.787,5.673-3.541,8.523-5.29c0.2-0.122,0.477-0.117,0.718-0.172c-0.118,0.202-0.197,0.445-0.361,0.599
		c-2.123,1.995-4.243,3.994-6.4,5.952c-0.566,0.514-0.951,1.035-1.011,1.823c-0.064,0.834-0.238,1.659-0.386,2.637
		c0.987-0.894,1.856-1.681,2.727-2.47c0.11,0.077,0.186,0.126,0.258,0.18c1.328,1.019,2.653,2.041,3.983,3.057
		c0.575,0.439,0.691,0.399,0.828-0.293c0.683-3.453,1.364-6.907,2.041-10.361C22.933,10.225,23.168,8.963,23.432,7.579z"/>
</g>
</svg>
