<?xml version="1.0" encoding="utf-8"?>
<!-- Generator: Adobe Illustrator 17.0.0, SVG Export Plug-In . SVG Version: 6.00 Build 0)  -->
<!DOCTYPE svg PUBLIC "-//W3C//DTD SVG 1.1//EN" "http://www.w3.org/Graphics/SVG/1.1/DTD/svg11.dtd">
<svg version="1.1" id="Layer_1" xmlns="http://www.w3.org/2000/svg" xmlns:xlink="http://www.w3.org/1999/xlink" x="0px" y="0px"
	 width="20px" height="16.255px" viewBox="5 6.872 20 16.255" enable-background="new 5 6.872 20 16.255" xml:space="preserve">
<g>
	<path d="M11.29,23.127c7.548,0,11.675-6.253,11.675-11.675c0-0.178-0.003-0.354-0.012-0.531c0.801-0.579,1.498-1.302,2.047-2.125
		c-0.735,0.326-1.526,0.547-2.357,0.646c0.847-0.508,1.498-1.312,1.804-2.269c-0.793,0.47-1.671,0.812-2.605,0.996
		c-0.748-0.797-1.815-1.297-2.995-1.297c-2.266,0-4.104,1.838-4.104,4.103c0,0.322,0.036,0.635,0.107,0.935
		c-3.411-0.17-6.435-1.803-8.458-4.286C6.039,8.23,5.836,8.935,5.836,9.686c0,1.424,0.724,2.68,1.826,3.416
		c-0.673-0.021-1.305-0.206-1.859-0.513c-0.001,0.017-0.001,0.034-0.001,0.052c0,1.987,1.414,3.646,3.292,4.023
		c-0.344,0.094-0.708,0.144-1.081,0.144c-0.264,0-0.521-0.026-0.771-0.074c0.523,1.63,2.037,2.817,3.833,2.85
		c-1.404,1.101-3.174,1.756-5.096,1.756c-0.331,0-0.658-0.019-0.979-0.057C6.816,22.448,8.972,23.127,11.29,23.127"/>
</g>
</svg>
