<?xml version="1.0" encoding="utf-8"?>
<!-- Generator: Adobe Illustrator 17.0.0, SVG Export Plug-In . SVG Version: 6.00 Build 0)  -->
<!DOCTYPE svg PUBLIC "-//W3C//DTD SVG 1.1//EN" "http://www.w3.org/Graphics/SVG/1.1/DTD/svg11.dtd">
<svg version="1.1" id="Layer_1" xmlns="http://www.w3.org/2000/svg" xmlns:xlink="http://www.w3.org/1999/xlink" x="0px" y="0px"
	 width="20px" height="20px" viewBox="5 5 20 20" enable-background="new 5 5 20 20" xml:space="preserve">
<g>
	<path d="M24.475,8.449c-0.255-0.657-0.597-1.215-1.153-1.771s-1.113-0.898-1.771-1.153c-0.636-0.247-1.363-0.416-2.427-0.465
		C18.057,5.011,17.716,5,15,5s-3.057,0.011-4.123,0.06C9.813,5.109,9.086,5.278,8.449,5.525C7.792,5.78,7.234,6.122,6.678,6.678
		S5.78,7.791,5.525,8.449C5.278,9.086,5.109,9.813,5.06,10.877C5.011,11.943,5,12.284,5,15s0.011,3.057,0.06,4.123
		c0.049,1.065,0.217,1.791,0.465,2.427c0.255,0.657,0.597,1.215,1.153,1.771s1.113,0.898,1.771,1.153
		c0.636,0.247,1.363,0.416,2.427,0.465C11.943,24.989,12.284,25,15,25s3.057-0.011,4.123-0.06c1.065-0.049,1.791-0.217,2.427-0.465
		c0.657-0.255,1.215-0.597,1.771-1.153s0.898-1.113,1.153-1.771c0.247-0.636,0.416-1.363,0.465-2.427C24.989,18.057,25,17.716,25,15
		s-0.011-3.057-0.06-4.123C24.891,9.813,24.722,9.086,24.475,8.449z M21.147,19.271h-1.459c-0.556,0-0.719-0.443-1.708-1.433
		c-0.865-0.834-1.236-0.943-1.452-0.943c-0.293,0-0.381,0.083-0.381,0.5v1.308c0,0.359-0.115,0.567-1.041,0.567
		c-1.545,0-3.243-0.938-4.448-2.669c-1.807-2.534-2.302-4.449-2.302-4.836c0-0.216,0.083-0.413,0.5-0.413h1.459
		c0.373,0,0.513,0.163,0.653,0.567c0.713,2.078,1.916,3.893,2.41,3.893c0.185,0,0.271-0.085,0.271-0.556V13.11
		c-0.054-0.989-0.579-1.07-0.579-1.421c0-0.163,0.139-0.335,0.371-0.335h2.292c0.309,0,0.417,0.165,0.417,0.536v2.889
		c0,0.309,0.134,0.417,0.227,0.417c0.185,0,0.34-0.108,0.68-0.448c1.051-1.174,1.792-2.982,1.792-2.982
		c0.093-0.216,0.264-0.413,0.635-0.413h1.459c0.441,0,0.533,0.227,0.441,0.536c-0.185,0.85-1.962,3.353-1.962,3.353
		c-0.155,0.247-0.217,0.371,0,0.649c0.155,0.217,0.665,0.649,1.004,1.051c0.627,0.705,1.099,1.299,1.23,1.709
		C21.773,19.063,21.564,19.271,21.147,19.271z"/>
</g>
</svg>
